<?xml version="1.0" encoding="utf-8"?>
<!-- Generator: Adobe Illustrator 15.0.0, SVG Export Plug-In . SVG Version: 6.00 Build 0)  -->
<!DOCTYPE svg PUBLIC "-//W3C//DTD SVG 1.1//EN" "http://www.w3.org/Graphics/SVG/1.1/DTD/svg11.dtd">
<svg version="1.1" id="Layer_1" xmlns="http://www.w3.org/2000/svg" xmlns:xlink="http://www.w3.org/1999/xlink" x="0px" y="0px"
	 width="80px" height="80px" viewBox="0 0 80 80" enable-background="new 0 0 80 80" xml:space="preserve">
<g id="location_2_" display="none">
	<path display="inline" fill="#78CFCF" d="M40.002,57.503c-0.414,0-0.795-0.214-1.031-0.553L21.884,31.564
		c-4.788-8.29-3.424-18.713,3.281-25.415C29.126,2.179,34.399,0,40.002,0c5.609,0,10.885,2.179,14.854,6.149
		c6.705,6.702,8.062,17.125,3.312,25.337L41.05,56.95C40.816,57.289,40.426,57.503,40.002,57.503z M40.002,2.499
		c-4.931,0-9.58,1.924-13.072,5.416C21.024,13.821,19.821,23,24.009,30.232l15.994,23.776l16.049-23.84
		C60.193,23,58.99,13.821,53.09,7.915C49.598,4.423,44.949,2.499,40.002,2.499z"/>
	<path display="inline" fill="#78CFCF" d="M40.002,32.376c-3.04,0-5.891-1.187-8.041-3.334c-2.146-2.143-3.333-5.001-3.333-8.04
		c0-3.049,1.177-5.907,3.333-8.057c2.15-2.147,5.001-3.336,8.041-3.336s5.907,1.189,8.057,3.336c2.146,2.15,3.336,5.008,3.336,8.047
		c0,3.048-1.188,5.907-3.336,8.05C45.909,31.189,43.051,32.376,40.002,32.376z M40.002,12.111c-2.367,0-4.595,0.921-6.272,2.599
		c-1.681,1.682-2.603,3.909-2.603,6.282c0,2.376,0.922,4.604,2.603,6.282c3.358,3.353,9.202,3.353,12.563,0
		c1.678-1.678,2.594-3.906,2.594-6.282c0-2.373-0.922-4.601-2.594-6.282C44.611,13.032,42.387,12.111,40.002,12.111z"/>
	<path display="inline" fill="#78CFCF" d="M79.045,72.13c0,0-5.383-16.103-8.539-25.644c-1.086-3.286-3.656-4.922-8.002-6.765
		l-3.915-1.771l-1.419,2.108l4.336,1.953c4.303,1.837,5.913,3.109,6.624,5.259c3.159,9.549,8.542,25.658,8.556,25.666
		c1.183,3.48,0.736,4.25,0.697,4.322c-0.148,0.178-1.125,0.279-3.859-0.974l-16.984-8.267c-0.355-0.179-0.771-0.172-1.124,0.012
		l-15.417,7.986l-16.229-7.998c-0.349-0.179-0.763-0.172-1.115,0.012L6.485,76.284c-2.945,1.433-3.87,1.177-3.876,1.177
		c-0.023-0.025-0.53-0.669,0.728-4.533c0,0,5.389-16.109,8.548-25.658c0.695-2.088,2.062-3.174,6.657-5.272l4.319-1.92l-1.422-2.112
		L17.5,39.721c-4.688,2.151-6.955,3.632-7.986,6.765C6.359,56.027,0.96,72.13,0.96,72.143c-1.148,3.537-1.258,5.566-0.375,6.785
		c0.359,0.488,1.054,1.077,2.321,1.077c1.132,0,2.615-0.469,4.694-1.474l15.629-7.995l16.227,7.995
		c0.359,0.175,0.773,0.175,1.125-0.014l15.425-7.981l16.46,8.017c1.931,0.883,3.353,1.295,4.487,1.295
		c1.352,0,2.074-0.617,2.449-1.129C80.296,77.467,80.195,75.492,79.045,72.13z"/>
</g>
<rect x="-1.687" y="-2.5" fill="#CCCCCC" width="82.862" height="83.5"/>
<g>
	<path fill="#FFFFFF" d="M7.818,41.311v-4.121H8.65v4.121H7.818z"/>
	<path fill="#FFFFFF" d="M9.432,41.311v-4.121h1.245l0.749,2.812l0.739-2.812h1.247v4.121h-0.773v-3.245l-0.817,3.245H11.02
		l-0.815-3.245v3.245H9.432z"/>
	<path fill="#FFFFFF" d="M17.953,41.311h-0.905l-0.36-0.937h-1.647l-0.34,0.937h-0.882l1.604-4.121h0.88L17.953,41.311z
		 M16.421,39.68l-0.568-1.529l-0.557,1.529H16.421z"/>
	<path fill="#FFFFFF" d="M20.31,39.795v-0.694h1.794v1.641c-0.174,0.169-0.427,0.316-0.757,0.445
		c-0.331,0.13-0.665,0.192-1.005,0.192c-0.431,0-0.806-0.09-1.127-0.271s-0.562-0.439-0.723-0.776
		c-0.162-0.336-0.241-0.702-0.241-1.098c0-0.429,0.089-0.81,0.269-1.144c0.18-0.333,0.443-0.588,0.79-0.767
		c0.265-0.137,0.593-0.205,0.987-0.205c0.512,0,0.911,0.107,1.198,0.322c0.288,0.214,0.473,0.511,0.556,0.89l-0.827,0.154
		c-0.058-0.203-0.167-0.362-0.328-0.479c-0.16-0.118-0.36-0.176-0.6-0.176c-0.364,0-0.653,0.115-0.867,0.346
		c-0.214,0.231-0.321,0.573-0.321,1.026c0,0.489,0.108,0.855,0.325,1.1c0.217,0.245,0.503,0.368,0.855,0.368
		c0.174,0,0.349-0.035,0.524-0.104c0.175-0.068,0.326-0.151,0.451-0.249v-0.522H20.31z"/>
	<path fill="#FFFFFF" d="M22.872,41.311v-4.121h3.054v0.697h-2.223v0.913h2.069v0.696h-2.069v1.12h2.302v0.695H22.872z"/>
	<path fill="#FFFFFF" d="M28.31,41.311v-4.121h1.335c0.506,0,0.835,0.021,0.989,0.062c0.237,0.062,0.434,0.196,0.593,0.403
		c0.16,0.207,0.24,0.475,0.24,0.803c0,0.253-0.046,0.465-0.138,0.638c-0.092,0.172-0.208,0.308-0.351,0.406
		c-0.141,0.099-0.285,0.164-0.431,0.195c-0.199,0.04-0.486,0.06-0.863,0.06h-0.542v1.555H28.31z M29.141,37.886v1.169h0.455
		c0.328,0,0.547-0.021,0.658-0.064c0.111-0.043,0.198-0.111,0.261-0.203c0.062-0.092,0.094-0.199,0.094-0.321
		c0-0.149-0.044-0.273-0.132-0.37c-0.088-0.098-0.199-0.159-0.335-0.184c-0.099-0.019-0.298-0.028-0.598-0.028H29.141z"/>
	<path fill="#FFFFFF" d="M32.171,41.311v-4.087h0.832v3.392h2.068v0.695H32.171z"/>
	<path fill="#FFFFFF" d="M39.379,41.311h-0.905l-0.359-0.937h-1.647l-0.34,0.937h-0.882l1.604-4.121h0.88L39.379,41.311z
		 M37.848,39.68l-0.567-1.529l-0.557,1.529H37.848z"/>
	<path fill="#FFFFFF" d="M42.457,39.795l0.807,0.256c-0.123,0.45-0.328,0.784-0.616,1.001s-0.652,0.327-1.095,0.327
		c-0.548,0-0.997-0.186-1.349-0.561c-0.354-0.374-0.529-0.884-0.529-1.533c0-0.686,0.177-1.218,0.531-1.597
		c0.354-0.379,0.82-0.569,1.397-0.569c0.504,0,0.912,0.149,1.229,0.446c0.187,0.177,0.327,0.43,0.42,0.759l-0.822,0.197
		c-0.049-0.214-0.151-0.383-0.305-0.507c-0.155-0.123-0.343-0.185-0.563-0.185c-0.307,0-0.555,0.11-0.744,0.329
		c-0.19,0.22-0.285,0.575-0.285,1.065c0,0.522,0.094,0.892,0.281,1.113c0.187,0.221,0.431,0.333,0.729,0.333
		c0.222,0,0.412-0.071,0.571-0.212C42.273,40.318,42.388,40.098,42.457,39.795z"/>
	<path fill="#FFFFFF" d="M43.978,41.311v-4.121h3.055v0.697H44.81v0.913h2.068v0.696H44.81v1.12h2.302v0.695H43.978z"/>
	<path fill="#FFFFFF" d="M47.82,41.311v-4.121h0.831v1.622h1.63v-1.622h0.832v4.121h-0.832v-1.802h-1.63v1.802H47.82z"/>
	<path fill="#FFFFFF" d="M51.805,39.275c0-0.42,0.063-0.771,0.188-1.057c0.093-0.21,0.222-0.399,0.384-0.565
		c0.162-0.167,0.339-0.291,0.533-0.371c0.256-0.108,0.552-0.163,0.888-0.163c0.606,0,1.093,0.188,1.457,0.565s0.547,0.9,0.547,1.571
		c0,0.664-0.181,1.185-0.542,1.562c-0.363,0.375-0.846,0.562-1.451,0.562c-0.612,0-1.1-0.186-1.462-0.561
		C51.986,40.445,51.805,39.931,51.805,39.275z M52.662,39.248c0,0.466,0.108,0.819,0.324,1.061c0.214,0.241,0.487,0.362,0.82,0.362
		c0.332,0,0.603-0.12,0.816-0.359c0.211-0.239,0.318-0.597,0.318-1.075c0-0.473-0.104-0.824-0.31-1.057
		c-0.207-0.231-0.483-0.348-0.825-0.348c-0.345,0-0.619,0.117-0.829,0.353S52.662,38.773,52.662,39.248z"/>
	<path fill="#FFFFFF" d="M56.474,41.311v-4.087h0.831v3.392h2.068v0.695H56.474z"/>
	<path fill="#FFFFFF" d="M59.964,37.189h1.521c0.343,0,0.604,0.026,0.783,0.079c0.242,0.071,0.449,0.197,0.622,0.379
		c0.173,0.182,0.304,0.404,0.394,0.667c0.091,0.263,0.135,0.588,0.135,0.974c0,0.339-0.042,0.631-0.127,0.877
		c-0.103,0.3-0.249,0.542-0.441,0.727c-0.143,0.142-0.339,0.251-0.584,0.328c-0.183,0.059-0.429,0.089-0.736,0.089h-1.565V37.189z
		 M60.795,37.886v2.729h0.622c0.232,0,0.399-0.012,0.503-0.039c0.136-0.032,0.247-0.09,0.336-0.171
		c0.089-0.081,0.162-0.214,0.218-0.397c0.056-0.185,0.084-0.437,0.084-0.755c0-0.318-0.028-0.562-0.084-0.734
		c-0.056-0.17-0.134-0.303-0.236-0.399c-0.102-0.095-0.229-0.16-0.386-0.193c-0.114-0.026-0.344-0.04-0.682-0.04H60.795z"/>
	<path fill="#FFFFFF" d="M64.123,41.311v-4.121h3.055v0.697h-2.224v0.913h2.069v0.696h-2.069v1.12h2.303v0.695H64.123z"/>
	<path fill="#FFFFFF" d="M67.966,41.311v-4.121h1.75c0.44,0,0.76,0.037,0.96,0.111s0.359,0.206,0.479,0.395
		c0.121,0.189,0.181,0.406,0.181,0.649c0,0.309-0.09,0.564-0.272,0.766c-0.183,0.201-0.453,0.328-0.815,0.381
		c0.181,0.104,0.328,0.22,0.446,0.345c0.117,0.126,0.273,0.348,0.473,0.67l0.504,0.804h-0.996l-0.601-0.897
		c-0.214-0.321-0.359-0.522-0.438-0.605c-0.079-0.083-0.163-0.14-0.252-0.172c-0.087-0.031-0.227-0.047-0.418-0.047h-0.168v1.721
		H67.966z M68.798,38.932h0.614c0.4,0,0.648-0.016,0.748-0.051c0.1-0.034,0.177-0.092,0.233-0.174
		c0.056-0.082,0.084-0.185,0.084-0.308c0-0.139-0.036-0.251-0.111-0.336c-0.073-0.086-0.178-0.139-0.312-0.161
		c-0.068-0.01-0.27-0.015-0.607-0.015h-0.648V38.932z"/>
</g>
</svg>
