<?xml version="1.0" encoding="utf-8"?>
<!-- Generator: Adobe Illustrator 15.0.0, SVG Export Plug-In . SVG Version: 6.00 Build 0)  -->
<!DOCTYPE svg PUBLIC "-//W3C//DTD SVG 1.1//EN" "http://www.w3.org/Graphics/SVG/1.1/DTD/svg11.dtd">
<svg version="1.1" id="Layer_1" xmlns="http://www.w3.org/2000/svg" xmlns:xlink="http://www.w3.org/1999/xlink" x="0px" y="0px"
	 width="80px" height="80px" viewBox="0 0 80 80" enable-background="new 0 0 80 80" xml:space="preserve">
<rect x="-1.5" y="-2.319" fill="#CCCCCC" width="84.488" height="85.138"/>
<g>
	<path fill="#FFFFFF" d="M8.191,42.351v-4.201H9.04v4.201H8.191z"/>
	<path fill="#FFFFFF" d="M9.837,42.351v-4.201h1.269l0.763,2.866l0.753-2.866h1.271v4.201h-0.788v-3.308l-0.833,3.308h-0.816
		l-0.832-3.308v3.308H9.837z"/>
	<path fill="#FFFFFF" d="M18.525,42.351h-0.923l-0.367-0.955h-1.68l-0.347,0.955H14.31l1.636-4.201h0.897L18.525,42.351z
		 M16.963,40.688l-0.579-1.559l-0.567,1.559H16.963z"/>
	<path fill="#FFFFFF" d="M20.929,40.806v-0.708h1.829v1.673c-0.177,0.172-0.435,0.322-0.772,0.454
		c-0.337,0.132-0.678,0.196-1.024,0.196c-0.44,0-0.822-0.092-1.149-0.276c-0.327-0.184-0.573-0.448-0.737-0.791
		c-0.164-0.343-0.245-0.716-0.245-1.119c0-0.438,0.091-0.826,0.274-1.167c0.183-0.339,0.452-0.6,0.806-0.782
		c0.27-0.14,0.604-0.209,1.006-0.209c0.521,0,0.929,0.109,1.222,0.328c0.293,0.218,0.482,0.521,0.566,0.907l-0.843,0.158
		c-0.059-0.207-0.17-0.369-0.334-0.488c-0.163-0.12-0.367-0.18-0.611-0.18c-0.371,0-0.666,0.118-0.884,0.352
		c-0.219,0.236-0.328,0.584-0.328,1.046c0,0.499,0.111,0.872,0.332,1.121c0.222,0.25,0.513,0.375,0.872,0.375
		c0.177,0,0.355-0.035,0.534-0.105c0.179-0.068,0.332-0.153,0.459-0.253v-0.533H20.929z"/>
	<path fill="#FFFFFF" d="M23.541,42.351v-4.201h3.114v0.71h-2.267v0.931h2.11V40.5h-2.11v1.143h2.347v0.708H23.541z"/>
	<path fill="#FFFFFF" d="M29.085,42.351v-4.201h1.361c0.516,0,0.852,0.021,1.008,0.063c0.242,0.063,0.442,0.2,0.605,0.411
		c0.163,0.211,0.245,0.484,0.245,0.818c0,0.258-0.047,0.475-0.141,0.65c-0.094,0.176-0.212,0.314-0.357,0.415
		c-0.144,0.1-0.291,0.166-0.439,0.197c-0.203,0.042-0.496,0.062-0.88,0.062h-0.553v1.585H29.085z M29.933,38.859v1.193h0.464
		c0.334,0,0.558-0.022,0.671-0.066c0.113-0.044,0.202-0.113,0.266-0.207s0.096-0.202,0.096-0.327c0-0.153-0.045-0.279-0.135-0.377
		c-0.09-0.1-0.203-0.162-0.341-0.187c-0.1-0.02-0.304-0.029-0.61-0.029H29.933z"/>
	<path fill="#FFFFFF" d="M33.022,42.351v-4.167h0.849v3.459h2.109v0.708H33.022z"/>
	<path fill="#FFFFFF" d="M40.373,42.351H39.45l-0.367-0.955h-1.679l-0.348,0.955h-0.898l1.635-4.201h0.897L40.373,42.351z
		 M38.811,40.688l-0.578-1.559l-0.568,1.559H38.811z"/>
	<path fill="#FFFFFF" d="M43.511,40.806l0.822,0.261c-0.126,0.459-0.335,0.8-0.629,1.022c-0.293,0.222-0.665,0.333-1.116,0.333
		c-0.558,0-1.017-0.189-1.374-0.571c-0.361-0.382-0.54-0.902-0.54-1.563c0-0.699,0.181-1.242,0.542-1.629
		c0.36-0.386,0.835-0.58,1.424-0.58c0.515,0,0.931,0.152,1.253,0.455c0.19,0.18,0.334,0.438,0.429,0.774l-0.839,0.201
		c-0.05-0.218-0.154-0.39-0.312-0.516s-0.349-0.189-0.573-0.189c-0.313,0-0.565,0.112-0.759,0.335
		c-0.194,0.225-0.291,0.586-0.291,1.086c0,0.532,0.095,0.91,0.286,1.135c0.19,0.227,0.439,0.339,0.745,0.339
		c0.225,0,0.419-0.072,0.581-0.216C43.323,41.339,43.439,41.114,43.511,40.806z"/>
	<path fill="#FFFFFF" d="M45.061,42.351v-4.201h3.114v0.71h-2.267v0.931h2.11V40.5h-2.11v1.143h2.348v0.708H45.061z"/>
	<path fill="#FFFFFF" d="M48.979,42.351v-4.201h0.847v1.653h1.662v-1.653h0.848v4.201h-0.848v-1.837h-1.662v1.837H48.979z"/>
	<path fill="#FFFFFF" d="M53.041,40.276c0-0.429,0.065-0.787,0.192-1.078c0.095-0.214,0.227-0.406,0.392-0.576
		c0.165-0.17,0.346-0.296,0.543-0.378c0.262-0.111,0.563-0.166,0.905-0.166c0.619,0,1.114,0.192,1.486,0.576
		s0.558,0.918,0.558,1.603c0,0.677-0.185,1.208-0.553,1.592c-0.37,0.383-0.862,0.573-1.479,0.573c-0.625,0-1.122-0.189-1.491-0.571
		C53.227,41.469,53.041,40.944,53.041,40.276z M53.916,40.247c0,0.476,0.11,0.836,0.33,1.082c0.218,0.245,0.497,0.368,0.837,0.368
		c0.338,0,0.614-0.122,0.832-0.365c0.216-0.244,0.325-0.609,0.325-1.096c0-0.482-0.105-0.841-0.316-1.078
		c-0.211-0.236-0.492-0.355-0.841-0.355c-0.352,0-0.632,0.119-0.846,0.359C54.022,39.402,53.916,39.764,53.916,40.247z"/>
	<path fill="#FFFFFF" d="M57.802,42.351v-4.167h0.848v3.459h2.109v0.708H57.802z"/>
	<path fill="#FFFFFF" d="M61.36,38.149h1.551c0.35,0,0.615,0.026,0.799,0.081c0.247,0.072,0.458,0.201,0.634,0.387
		c0.176,0.185,0.311,0.412,0.401,0.68c0.093,0.268,0.138,0.6,0.138,0.993c0,0.346-0.043,0.644-0.13,0.895
		c-0.104,0.306-0.254,0.554-0.449,0.741c-0.146,0.145-0.347,0.256-0.597,0.335c-0.186,0.059-0.437,0.09-0.75,0.09H61.36V38.149z
		 M62.208,38.859v2.783h0.634c0.237,0,0.407-0.013,0.513-0.04c0.139-0.033,0.253-0.092,0.343-0.175
		c0.091-0.082,0.165-0.218,0.223-0.405c0.057-0.188,0.086-0.445,0.086-0.77c0-0.324-0.029-0.574-0.086-0.748
		c-0.058-0.174-0.137-0.309-0.241-0.407C63.575,39,63.445,38.935,63.286,38.9c-0.117-0.027-0.351-0.041-0.696-0.041H62.208z"/>
	<path fill="#FFFFFF" d="M65.602,42.351v-4.201h3.114v0.71h-2.267v0.931h2.109V40.5h-2.109v1.143h2.348v0.708H65.602z"/>
	<path fill="#FFFFFF" d="M69.52,42.351v-4.201h1.784c0.45,0,0.775,0.038,0.979,0.113c0.203,0.076,0.366,0.209,0.487,0.402
		c0.124,0.193,0.184,0.414,0.184,0.662c0,0.315-0.091,0.575-0.277,0.781c-0.186,0.205-0.462,0.334-0.831,0.388
		c0.185,0.107,0.335,0.224,0.455,0.352c0.119,0.129,0.279,0.355,0.482,0.683l0.514,0.819h-1.016l-0.612-0.914
		c-0.219-0.327-0.367-0.532-0.447-0.617s-0.165-0.144-0.256-0.176c-0.089-0.031-0.231-0.048-0.427-0.048h-0.172v1.755H69.52z
		 M70.367,39.926h0.628c0.407,0,0.66-0.016,0.763-0.052c0.101-0.034,0.18-0.093,0.237-0.178c0.057-0.083,0.085-0.188,0.085-0.314
		c0-0.142-0.036-0.255-0.112-0.342c-0.075-0.088-0.182-0.143-0.319-0.165c-0.069-0.009-0.274-0.015-0.619-0.015h-0.662V39.926z"/>
</g>
</svg>
